<svg width="25" height="26" viewBox="0 0 25 26" fill="none" xmlns="http://www.w3.org/2000/svg">
<g clip-path="url(#clip0_1_65)">
<path d="M10.2878 4.49219C10.8972 4.49219 11.4949 4.55078 12.0808 4.66797C12.6667 4.78516 13.241 4.96875 13.8035 5.21875C14.3347 5.4375 14.8386 5.70703 15.3152 6.02734C15.7917 6.34766 16.241 6.71875 16.6628 7.14062C17.0691 7.54688 17.4324 7.99219 17.7527 8.47656C18.073 8.96094 18.3503 9.46875 18.5847 10C18.8191 10.5469 18.9949 11.1133 19.1121 11.6992C19.2292 12.2852 19.2878 12.8828 19.2878 13.4922C19.2878 14.1016 19.2292 14.6992 19.1121 15.2852C18.9949 15.8711 18.8191 16.4453 18.5847 17.0078C18.3503 17.5391 18.073 18.043 17.7527 18.5195C17.4324 18.9961 17.0691 19.4453 16.6628 19.8672C16.241 20.2734 15.7917 20.6406 15.3152 20.9688C14.8386 21.2969 14.3347 21.5703 13.8035 21.7891C13.241 22.0234 12.6667 22.1992 12.0808 22.3164C11.4949 22.4336 10.8972 22.4922 10.2878 22.4922C9.67847 22.4922 9.08081 22.4336 8.49487 22.3164C7.90894 22.1992 7.34253 22.0234 6.79565 21.7891C6.24878 21.5703 5.73706 21.2969 5.2605 20.9688C4.78394 20.6406 4.34253 20.2734 3.93628 19.8672C3.5144 19.4453 3.14331 18.9961 2.823 18.5195C2.50269 18.043 2.22534 17.5391 1.99097 17.0078C1.75659 16.4453 1.58081 15.8711 1.46362 15.2852C1.34644 14.6992 1.28784 14.1016 1.28784 13.4922C1.28784 12.8828 1.34644 12.2852 1.46362 11.6992C1.58081 11.1133 1.75659 10.5469 1.99097 10C2.22534 9.46875 2.50269 8.96094 2.823 8.47656C3.14331 7.99219 3.5144 7.54688 3.93628 7.14062C4.34253 6.71875 4.78394 6.34766 5.2605 6.02734C5.73706 5.70703 6.24878 5.4375 6.79565 5.21875C7.34253 4.96875 7.90894 4.78516 8.49487 4.66797C9.08081 4.55078 9.67847 4.49219 10.2878 4.49219ZM10.2878 3.50781C8.91284 3.50781 7.61597 3.76562 6.39722 4.28125C5.17847 4.8125 4.11987 5.53125 3.22144 6.4375C2.323 7.34375 1.60815 8.39844 1.0769 9.60156C0.545654 10.8203 0.280029 12.1172 0.280029 13.4922C0.280029 14.8828 0.545654 16.1797 1.0769 17.3828C1.60815 18.6016 2.323 19.6641 3.22144 20.5703C4.11987 21.4766 5.17847 22.1875 6.39722 22.7031C7.61597 23.2344 8.91284 23.5 10.2878 23.5C11.6628 23.5 12.9597 23.2344 14.1785 22.7031C15.3972 22.1875 16.4597 21.4766 17.366 20.5703C18.2722 19.6641 18.9832 18.6016 19.4988 17.3828C20.03 16.1797 20.2957 14.8828 20.2957 13.4922C20.2957 12.1172 20.03 10.8203 19.4988 9.60156C18.9832 8.39844 18.2722 7.34375 17.366 6.4375C16.4597 5.53125 15.3972 4.8125 14.1785 4.28125C12.9597 3.76562 11.6628 3.50781 10.2878 3.50781ZM12.5613 8.33594C12.2332 8.02344 11.8816 7.78906 11.5066 7.63281C11.1316 7.47656 10.7175 7.39844 10.2644 7.39844C9.90503 7.39844 9.54956 7.45703 9.198 7.57422C8.84644 7.69141 8.53003 7.85938 8.24878 8.07812C8.0144 8.26562 7.78003 8.53125 7.54565 8.875C7.31128 9.21875 7.19409 9.67188 7.19409 10.2344C7.19409 10.3438 7.20972 10.4414 7.24097 10.5273C7.27222 10.6133 7.3269 10.6875 7.40503 10.75C7.4519 10.7969 7.5144 10.832 7.59253 10.8555C7.67065 10.8789 7.74878 10.8906 7.8269 10.8906C7.9519 10.875 8.073 10.8203 8.19019 10.7266C8.30737 10.6328 8.35815 10.5078 8.34253 10.3516C8.34253 10.1328 8.37769 9.92578 8.448 9.73047C8.51831 9.53516 8.63159 9.35938 8.78784 9.20312C8.95972 9.01562 9.18237 8.86328 9.45581 8.74609C9.72925 8.62891 9.99878 8.57031 10.2644 8.57031C10.8425 8.57031 11.3152 8.75391 11.6824 9.12109C12.0496 9.48828 12.2332 9.96094 12.2332 10.5391C12.2332 10.9453 12.1238 11.2656 11.905 11.5C11.6863 11.7344 11.405 11.9531 11.0613 12.1562C11.0613 12.1562 11.0574 12.1602 11.0496 12.168C11.0417 12.1758 11.03 12.1797 11.0144 12.1797C10.8894 12.2422 10.7214 12.3477 10.5105 12.4961C10.2996 12.6445 10.0925 12.8516 9.8894 13.1172C9.62378 13.4297 9.43628 13.793 9.3269 14.207C9.21753 14.6211 9.17847 15.0625 9.20972 15.5312C9.22534 15.6406 9.25269 15.7383 9.29175 15.8242C9.33081 15.9102 9.38159 15.9844 9.44409 16.0469C9.50659 16.0781 9.56519 16.1055 9.61987 16.1289C9.67456 16.1523 9.74097 16.1641 9.81909 16.1641C9.83472 16.1641 9.85034 16.1641 9.86597 16.1641C9.88159 16.1641 9.89722 16.1641 9.91284 16.1641C9.97534 16.1484 10.0378 16.125 10.1003 16.0938C10.1628 16.0625 10.2175 16.0156 10.2644 15.9531C10.3113 15.8906 10.3425 15.8203 10.3582 15.7422C10.3738 15.6641 10.3738 15.5781 10.3582 15.4844C10.2957 14.6719 10.448 14.1016 10.8152 13.7734C11.1824 13.4453 11.4597 13.2266 11.6472 13.1172C11.6628 13.1016 11.6785 13.0898 11.6941 13.082C11.7097 13.0742 11.7253 13.0703 11.741 13.0703C12.2878 12.7578 12.7019 12.3906 12.9832 11.9688C13.2644 11.5469 13.405 11.0703 13.405 10.5391C13.405 10.0859 13.3308 9.67188 13.1824 9.29688C13.0339 8.92188 12.8269 8.60156 12.5613 8.33594ZM9.79565 19.4922C9.5144 19.4922 9.27612 19.3945 9.08081 19.1992C8.8855 19.0039 8.78784 18.7734 8.78784 18.5078C8.78784 18.2266 8.8855 17.9883 9.08081 17.793C9.27612 17.5977 9.5144 17.5 9.79565 17.5C10.0613 17.5 10.2917 17.5977 10.4871 17.793C10.6824 17.9883 10.78 18.2266 10.78 18.5078C10.78 18.7734 10.6824 19.0039 10.4871 19.1992C10.2917 19.3945 10.0613 19.4922 9.79565 19.4922Z" fill="#231D19"/>
</g>
<defs>
<clipPath id="clip0_1_65">
<rect width="24" height="25" fill="white" transform="matrix(1 0 0 -1 0.280029 25.5)"/>
</clipPath>
</defs>
</svg>
