<svg width="24" height="26" viewBox="0 0 24 26" fill="none" xmlns="http://www.w3.org/2000/svg">
    <path d="M1.00781 8.00781V20.0078C1.00781 20.1328 0.957031 20.2461 0.855469 20.3477C0.753906 20.4492 0.640625 20.5 0.515625 20.5C0.375 20.5 0.253906 20.4492 0.152344 20.3477C0.0507812 20.2461 0 20.1328 0 20.0078V8.00781C0 7.86719 0.0507812 7.74609 0.152344 7.64453C0.253906 7.54297 0.375 7.49219 0.515625 7.49219C0.640625 7.49219 0.753906 7.54297 0.855469 7.64453C0.957031 7.74609 1.00781 7.86719 1.00781 8.00781ZM4.00781 7.49219C3.72656 7.49219 3.48828 7.58984 3.29297 7.78516C3.09766 7.98047 3 8.21875 3 8.5V19.4922C3 19.7734 3.09766 20.0117 3.29297 20.207C3.48828 20.4023 3.72656 20.5 4.00781 20.5C4.28906 20.5 4.52734 20.4023 4.72266 20.207C4.91797 20.0117 5.01562 19.7734 5.01562 19.4922V8.5C5.01562 8.21875 4.91797 7.98047 4.72266 7.78516C4.52734 7.58984 4.28906 7.49219 4.00781 7.49219ZM7.5 7.49219C7.375 7.49219 7.26172 7.54297 7.16016 7.64453C7.05859 7.74609 7.00781 7.86719 7.00781 8.00781V20.0078C7.00781 20.1328 7.05859 20.2461 7.16016 20.3477C7.26172 20.4492 7.375 20.5 7.5 20.5C7.64062 20.5 7.76172 20.4492 7.86328 20.3477C7.96484 20.2461 8.01562 20.1328 8.01562 20.0078V8.00781C8.01562 7.86719 7.96484 7.74609 7.86328 7.64453C7.76172 7.54297 7.64062 7.49219 7.5 7.49219ZM19.5 7.49219C19.375 7.49219 19.2617 7.54297 19.1602 7.64453C19.0586 7.74609 19.0078 7.86719 19.0078 8.00781V20.0078C19.0078 20.1328 19.0586 20.2461 19.1602 20.3477C19.2617 20.4492 19.375 20.5 19.5 20.5C19.6406 20.5 19.7617 20.4492 19.8633 20.3477C19.9648 20.2461 20.0156 20.1328 20.0156 20.0078V8.00781C20.0156 7.86719 19.9648 7.74609 19.8633 7.64453C19.7617 7.54297 19.6406 7.49219 19.5 7.49219ZM16.0078 7.49219C15.7266 7.49219 15.4883 7.58984 15.293 7.78516C15.0977 7.98047 15 8.21875 15 8.5V19.4922C15 19.7734 15.0977 20.0117 15.293 20.207C15.4883 20.4023 15.7266 20.5 16.0078 20.5C16.2891 20.5 16.5273 20.4023 16.7227 20.207C16.918 20.0117 17.0156 19.7734 17.0156 19.4922V8.5C17.0156 8.21875 16.918 7.98047 16.7227 7.78516C16.5273 7.58984 16.2891 7.49219 16.0078 7.49219ZM13.5 7.49219C13.375 7.49219 13.2617 7.54297 13.1602 7.64453C13.0586 7.74609 13.0078 7.86719 13.0078 8.00781V20.0078C13.0078 20.1328 13.0586 20.2461 13.1602 20.3477C13.2617 20.4492 13.375 20.5 13.5 20.5C13.6406 20.5 13.7617 20.4492 13.8633 20.3477C13.9648 20.2461 14.0156 20.1328 14.0156 20.0078V8.00781C14.0156 7.86719 13.9648 7.74609 13.8633 7.64453C13.7617 7.54297 13.6406 7.49219 13.5 7.49219ZM11.0156 7.49219H10.0078C9.72656 7.49219 9.48828 7.58984 9.29297 7.78516C9.09766 7.98047 9 8.21875 9 8.5V19.4922C9 19.7734 9.09766 20.0117 9.29297 20.207C9.48828 20.4023 9.72656 20.5 10.0078 20.5H11.0156C11.2812 20.5 11.5117 20.4023 11.707 20.207C11.9023 20.0117 12 19.7734 12 19.4922V8.5C12 8.21875 11.9023 7.98047 11.707 7.78516C11.5117 7.58984 11.2812 7.49219 11.0156 7.49219Z" fill="#231D19"/>
</svg>
