<svg width="25" height="26" viewBox="0 0 25 26" fill="none" xmlns="http://www.w3.org/2000/svg">
<g clip-path="url(#clip0_1_59)">
<path d="M20.6456 23.0078C20.6456 23.1328 20.5948 23.2461 20.4933 23.3477C20.3917 23.4492 20.2706 23.5 20.13 23.5H1.14563C1.005 23.5 0.883911 23.4492 0.782349 23.3477C0.680786 23.2461 0.630005 23.1328 0.630005 23.0078C0.630005 22.8672 0.680786 22.7461 0.782349 22.6445C0.883911 22.543 1.005 22.4922 1.14563 22.4922H20.13C20.2706 22.4922 20.3917 22.543 20.4933 22.6445C20.5948 22.7461 20.6456 22.8672 20.6456 23.0078ZM3.63 18.5078V4.42188C3.63 4.42188 3.63 4.41797 3.63 4.41016C3.63 4.40234 3.63 4.39062 3.63 4.375C3.64563 4.125 3.74719 3.91797 3.93469 3.75391C4.12219 3.58984 4.33313 3.50781 4.5675 3.50781C4.64563 3.50781 4.71985 3.51562 4.79016 3.53125C4.86047 3.54688 4.92688 3.57031 4.98938 3.60156L6.63 4.42188L8.20032 3.60156C8.26282 3.57031 8.33313 3.54688 8.41125 3.53125C8.48938 3.51562 8.5675 3.50781 8.64563 3.50781C8.72375 3.50781 8.79797 3.51562 8.86829 3.53125C8.9386 3.54688 9.01282 3.57031 9.09094 3.60156L10.6378 4.49219L12.1847 3.60156C12.2628 3.57031 12.337 3.54688 12.4073 3.53125C12.4777 3.51562 12.5519 3.50781 12.63 3.50781C12.7081 3.50781 12.7863 3.51562 12.8644 3.53125C12.9425 3.54688 13.0128 3.57031 13.0753 3.60156L14.6456 4.42188L16.2863 3.60156C16.3488 3.57031 16.4152 3.54688 16.4855 3.53125C16.5558 3.51562 16.63 3.50781 16.7081 3.50781C16.9425 3.50781 17.1534 3.58984 17.3409 3.75391C17.5284 3.91797 17.63 4.125 17.6456 4.375C17.6456 4.39062 17.6456 4.40234 17.6456 4.41016C17.6456 4.41797 17.6456 4.42188 17.6456 4.42188V18.5078C17.6456 18.7734 17.548 19.0039 17.3527 19.1992C17.1573 19.3945 16.9191 19.4922 16.6378 19.4922H4.63782C4.35657 19.4922 4.11829 19.3945 3.92297 19.1992C3.72766 19.0039 3.63 18.7734 3.63 18.5078ZM4.63782 18.5078H16.6378V4.53906L14.6222 5.54688L12.63 4.49219L10.6378 5.66406L10.1456 5.35938L8.64563 4.49219L6.65344 5.54688L6.18469 5.3125L4.63782 4.53906V18.5078ZM7.14563 9.50781H14.13C14.2706 9.50781 14.3917 9.45703 14.4933 9.35547C14.5948 9.25391 14.6456 9.13281 14.6456 8.99219C14.6456 8.86719 14.5948 8.75391 14.4933 8.65234C14.3917 8.55078 14.2706 8.5 14.13 8.5H7.14563C7.005 8.5 6.88391 8.55078 6.78235 8.65234C6.68079 8.75391 6.63 8.86719 6.63 8.99219C6.63 9.13281 6.68079 9.25391 6.78235 9.35547C6.88391 9.45703 7.005 9.50781 7.14563 9.50781ZM7.14563 12.5078H14.13C14.2706 12.5078 14.3917 12.457 14.4933 12.3555C14.5948 12.2539 14.6456 12.1328 14.6456 11.9922C14.6456 11.8672 14.5948 11.7539 14.4933 11.6523C14.3917 11.5508 14.2706 11.5 14.13 11.5H7.14563C7.005 11.5 6.88391 11.5508 6.78235 11.6523C6.68079 11.7539 6.63 11.8672 6.63 11.9922C6.63 12.1328 6.68079 12.2539 6.78235 12.3555C6.88391 12.457 7.005 12.5078 7.14563 12.5078ZM7.14563 15.5078H14.13C14.2706 15.5078 14.3917 15.457 14.4933 15.3555C14.5948 15.2539 14.6456 15.1328 14.6456 14.9922C14.6456 14.8672 14.5948 14.7539 14.4933 14.6523C14.3917 14.5508 14.2706 14.5 14.13 14.5H7.14563C7.005 14.5 6.88391 14.5508 6.78235 14.6523C6.68079 14.7539 6.63 14.8672 6.63 14.9922C6.63 15.1328 6.68079 15.2539 6.78235 15.3555C6.88391 15.457 7.005 15.5078 7.14563 15.5078Z" fill="#231D19"/>
</g>
<defs>
<clipPath id="clip0_1_59">
<rect width="24" height="25" fill="white" transform="matrix(1 0 0 -1 0.630005 25.5)"/>
</clipPath>
</defs>
</svg>
