<svg width="25" height="26" viewBox="0 0 25 26" fill="none" xmlns="http://www.w3.org/2000/svg">
<g clip-path="url(#clip0_1_53)">
<path d="M13.9543 19C13.9543 19.1406 13.9075 19.2578 13.8137 19.3516C13.72 19.4453 13.6028 19.4922 13.4622 19.4922H8.46997C8.32935 19.4922 8.20825 19.4453 8.10669 19.3516C8.00513 19.2578 7.95435 19.1406 7.95435 19C7.95435 18.8594 8.00513 18.7422 8.10669 18.6484C8.20825 18.5547 8.32935 18.5078 8.46997 18.5078H13.4622C13.6028 18.5078 13.72 18.5547 13.8137 18.6484C13.9075 18.7422 13.9543 18.8594 13.9543 19ZM13.4622 15.5078H4.46216C4.32153 15.5078 4.20435 15.5547 4.1106 15.6484C4.01685 15.7422 3.96997 15.8594 3.96997 16C3.96997 16.1406 4.01685 16.2578 4.1106 16.3516C4.20435 16.4453 4.32153 16.4922 4.46216 16.4922H13.4622C13.6028 16.4922 13.72 16.4453 13.8137 16.3516C13.9075 16.2578 13.9543 16.1406 13.9543 16C13.9543 15.8594 13.9075 15.7422 13.8137 15.6484C13.72 15.5547 13.6028 15.5078 13.4622 15.5078ZM13.4622 12.5078H4.46216C4.32153 12.5078 4.20435 12.5547 4.1106 12.6484C4.01685 12.7422 3.96997 12.8594 3.96997 13C3.96997 13.1406 4.01685 13.2578 4.1106 13.3516C4.20435 13.4453 4.32153 13.4922 4.46216 13.4922H13.4622C13.6028 13.4922 13.72 13.4453 13.8137 13.3516C13.9075 13.2578 13.9543 13.1406 13.9543 13C13.9543 12.8594 13.9075 12.7422 13.8137 12.6484C13.72 12.5547 13.6028 12.5078 13.4622 12.5078ZM4.95435 8.5H1.95435V21.5078H15.97V3.50781H5.96216V7.49219C5.96216 7.77344 5.8645 8.01172 5.66919 8.20703C5.47388 8.40234 5.2356 8.5 4.95435 8.5ZM16.9543 3.50781V21.5078C16.9543 21.7734 16.8567 22.0039 16.6614 22.1992C16.4661 22.3945 16.2356 22.4922 15.97 22.4922H1.95435C1.68872 22.4922 1.45825 22.3945 1.26294 22.1992C1.06763 22.0039 0.969971 21.7734 0.969971 21.5078V7.375C0.969971 7.26562 0.985596 7.15625 1.01685 7.04688C1.0481 6.9375 1.10278 6.84375 1.18091 6.76562L4.15747 2.875C4.25122 2.76562 4.36841 2.67578 4.50903 2.60547C4.64966 2.53516 4.7981 2.5 4.95435 2.5H15.97C16.2356 2.5 16.4661 2.59766 16.6614 2.79297C16.8567 2.98828 16.9543 3.22656 16.9543 3.50781ZM1.95435 7.49219H4.95435V3.50781L1.95435 7.49219Z" fill="#231D19"/>
</g>
<defs>
<clipPath id="clip0_1_53">
<rect width="24" height="25" fill="white" transform="matrix(1 0 0 -1 0.969971 25.5)"/>
</clipPath>
</defs>
</svg>
