<svg width="17" height="17" viewBox="0 0 17 17" fill="none" xmlns="http://www.w3.org/2000/svg">
<g clip-path="url(#clip0_1_317)">
<path d="M7.47186 2.47168C7.46145 2.47168 7.45103 2.47168 7.44061 2.47168C7.4302 2.47168 7.41978 2.47168 7.40936 2.47168C7.40936 2.47168 7.40676 2.47168 7.40155 2.47168C7.39634 2.47168 7.39374 2.47168 7.39374 2.47168C7.38332 2.47168 7.37811 2.47168 7.37811 2.47168C6.51353 2.4821 5.69582 2.64876 4.92499 2.97168C4.16457 3.2946 3.49009 3.7321 2.90155 4.28418C2.31301 4.83626 1.83645 5.4821 1.47186 6.22168C1.10728 6.97168 0.893738 7.76855 0.831238 8.6123C0.820821 8.70605 0.813009 8.7946 0.8078 8.87793C0.802592 8.96126 0.799988 9.0446 0.799988 9.12793C0.799988 9.2321 0.802592 9.33366 0.8078 9.43262C0.813009 9.53158 0.820821 9.63314 0.831238 9.7373C0.904154 10.5706 1.12811 11.3571 1.50311 12.0967C1.8677 12.8258 2.34426 13.4639 2.9328 14.0107C3.52134 14.5576 4.19582 14.9873 4.95624 15.2998C5.71665 15.6227 6.52395 15.7894 7.37811 15.7998C7.37811 15.7998 7.38332 15.7998 7.39374 15.7998C7.39374 15.7998 7.39634 15.7998 7.40155 15.7998C7.40676 15.7998 7.40936 15.7998 7.40936 15.7998C7.41978 15.7998 7.4302 15.7998 7.44061 15.7998C7.45103 15.7998 7.46145 15.7998 7.47186 15.7998C8.38853 15.7998 9.25311 15.6227 10.0656 15.2686C10.8781 14.9248 11.5864 14.4508 12.1906 13.8467C12.7948 13.2425 13.2687 12.5342 13.6125 11.7217C13.9667 10.9196 14.1437 10.055 14.1437 9.12793C14.1437 8.21126 13.9667 7.34668 13.6125 6.53418C13.2687 5.72168 12.7948 5.01595 12.1906 4.41699C11.5864 3.81803 10.8781 3.34147 10.0656 2.9873C9.25311 2.64355 8.38853 2.47168 7.47186 2.47168ZM5.72186 14.6592C5.75311 14.6696 5.8677 14.5602 6.06561 14.3311C6.26353 14.1019 6.34165 13.9613 6.29999 13.9092C6.4354 13.9717 6.54999 13.9691 6.64374 13.9014C6.73749 13.8337 6.82082 13.7425 6.89374 13.6279C6.91457 13.5863 6.9354 13.5472 6.95624 13.5107C6.97707 13.4743 6.9979 13.4352 7.01874 13.3936C7.07082 13.2894 7.12551 13.1878 7.1828 13.0889C7.24009 12.9899 7.3052 12.9248 7.37811 12.8936C7.38853 12.8936 7.39634 12.891 7.40155 12.8857C7.40676 12.8805 7.41457 12.8779 7.42499 12.8779C7.58124 12.805 7.73228 12.7451 7.87811 12.6982C8.02395 12.6514 8.12811 12.4873 8.19061 12.2061C8.21145 12.1019 8.26613 11.9743 8.35468 11.8232C8.44322 11.6722 8.52395 11.5186 8.59686 11.3623C8.59686 11.3519 8.59686 11.3441 8.59686 11.3389C8.59686 11.3337 8.59686 11.3311 8.59686 11.3311C8.58645 11.2894 8.57863 11.2503 8.57343 11.2139C8.56822 11.1774 8.56561 11.1383 8.56561 11.0967C8.56561 11.0863 8.56561 11.0811 8.56561 11.0811C8.56561 11.0811 8.56561 11.0758 8.56561 11.0654C8.56561 11.055 8.56301 11.0472 8.5578 11.042C8.55259 11.0368 8.54999 11.029 8.54999 11.0186C8.52915 10.9561 8.51613 10.8936 8.51093 10.8311C8.50572 10.7686 8.50832 10.7061 8.51874 10.6436C8.4979 10.6123 8.47707 10.5837 8.45624 10.5576C8.4354 10.5316 8.40936 10.5081 8.37811 10.4873C8.35728 10.4977 8.33645 10.5055 8.31561 10.5107C8.29478 10.516 8.27395 10.5186 8.25311 10.5186C8.08645 10.5394 7.92499 10.5264 7.76874 10.4795C7.61249 10.4326 7.47186 10.3519 7.34686 10.2373C7.23228 10.1852 7.1203 10.1462 7.01093 10.1201C6.90155 10.0941 6.79999 10.0811 6.70624 10.0811C6.91457 9.88314 6.80259 9.59668 6.3703 9.22168C5.93801 8.84668 5.6229 8.65397 5.42499 8.64355C5.23749 8.63314 5.08905 8.62272 4.97968 8.6123C4.8703 8.60189 4.73228 8.58626 4.56561 8.56543C4.50311 8.58626 4.43801 8.6097 4.3703 8.63574C4.30259 8.66178 4.23749 8.69564 4.17499 8.7373C4.08124 8.78939 3.99009 8.84668 3.90155 8.90918C3.81301 8.97168 3.72707 9.03418 3.64374 9.09668C3.63332 9.30501 3.56301 9.51855 3.4328 9.7373C3.30259 9.95605 3.2427 10.1592 3.25311 10.3467C3.2427 10.6071 3.3729 10.9066 3.64374 11.2451C3.91457 11.5837 4.14374 11.8258 4.33124 11.9717C4.71665 12.2738 4.89895 12.6982 4.87811 13.2451C4.85728 13.792 4.9354 14.2581 5.11249 14.6436C4.75832 14.4977 4.42499 14.318 4.11249 14.1045C3.79999 13.891 3.50311 13.6488 3.22186 13.3779C2.95103 13.0967 2.70884 12.7972 2.4953 12.4795C2.28176 12.1618 2.09686 11.8258 1.94061 11.4717C1.78436 11.0967 1.66718 10.7139 1.58905 10.3232C1.51093 9.93262 1.47186 9.53418 1.47186 9.12793C1.47186 8.77376 1.50311 8.4248 1.56561 8.08105C1.62811 7.7373 1.71665 7.40397 1.83124 7.08105C1.83124 7.14355 1.83124 7.20866 1.83124 7.27637C1.83124 7.34408 1.83124 7.40918 1.83124 7.47168C1.8104 7.65918 1.8078 7.83626 1.82343 8.00293C1.83905 8.1696 1.9354 8.33105 2.11249 8.4873C2.20624 8.56022 2.3703 8.6722 2.60468 8.82324C2.83905 8.97428 2.96665 9.14355 2.98749 9.33105C3.00832 9.26855 3.03697 9.20345 3.07343 9.13574C3.10988 9.06803 3.14895 8.99772 3.19061 8.9248C3.14895 8.88314 3.10207 8.84408 3.04999 8.80762C2.9979 8.77116 2.94582 8.7373 2.89374 8.70605C2.9354 8.59147 2.97968 8.47949 3.02655 8.37012C3.07343 8.26074 3.1177 8.14876 3.15936 8.03418C3.02395 7.95085 2.9328 7.96387 2.88593 8.07324C2.83905 8.18262 2.77395 8.26335 2.69061 8.31543C2.39895 8.3571 2.3052 8.21126 2.40936 7.87793C2.51353 7.5446 2.59686 7.33105 2.65936 7.2373C2.8052 7.06022 2.91457 6.98991 2.98749 7.02637C3.0604 7.06283 3.12811 7.08626 3.19061 7.09668C3.21145 7.08626 3.23228 7.07585 3.25311 7.06543C3.27395 7.05501 3.29478 7.0446 3.31561 7.03418C3.32603 7.03418 3.33384 7.02897 3.33905 7.01855C3.34426 7.00814 3.35207 6.99772 3.36249 6.9873C3.39374 6.97689 3.42238 6.97168 3.44843 6.97168C3.47447 6.97168 3.4979 6.97168 3.51874 6.97168C3.63332 6.94043 3.75051 6.91178 3.8703 6.88574C3.99009 6.8597 4.11249 6.82585 4.23749 6.78418C4.26874 6.75293 4.3104 6.72168 4.36249 6.69043C4.41457 6.65918 4.47186 6.63835 4.53436 6.62793C4.56561 6.44043 4.72707 6.2321 5.01874 6.00293C5.3104 5.77376 5.57603 5.63314 5.81561 5.58105C5.83645 5.56022 5.85468 5.53678 5.8703 5.51074C5.88593 5.4847 5.89374 5.45605 5.89374 5.4248C5.90415 5.38314 5.89895 5.33887 5.87811 5.29199C5.85728 5.24512 5.83645 5.20605 5.81561 5.1748C5.79478 5.15397 5.77915 5.13314 5.76874 5.1123C5.75832 5.09147 5.7427 5.07064 5.72186 5.0498C5.70103 5.0498 5.6802 5.0472 5.65936 5.04199C5.63853 5.03678 5.6177 5.03418 5.59686 5.03418C5.53436 5.01335 5.48228 4.9847 5.44061 4.94824C5.39895 4.91178 5.36249 4.87272 5.33124 4.83105C5.28957 4.85189 5.25311 4.86491 5.22186 4.87012C5.19061 4.87533 5.15415 4.8623 5.11249 4.83105C5.15415 4.81022 5.1828 4.78418 5.19843 4.75293C5.21405 4.72168 5.22186 4.69043 5.22186 4.65918C5.20103 4.61751 5.18801 4.57585 5.1828 4.53418C5.17759 4.49251 5.1802 4.44564 5.19061 4.39355C5.14895 4.24772 5.13853 4.11491 5.15936 3.99512C5.1802 3.87533 5.36249 3.83105 5.70624 3.8623C5.70624 3.87272 5.70884 3.88314 5.71405 3.89355C5.71926 3.90397 5.72186 3.90918 5.72186 3.90918C5.75311 3.89876 5.78436 3.88835 5.81561 3.87793C5.84686 3.86751 5.88332 3.8571 5.92499 3.84668C6.00832 3.78418 6.10468 3.71387 6.21405 3.63574C6.32343 3.55762 6.42499 3.51335 6.51874 3.50293C6.5604 3.45085 6.60468 3.39616 6.65155 3.33887C6.69843 3.28158 6.7427 3.22168 6.78436 3.15918C6.89895 3.14876 7.01353 3.14095 7.12811 3.13574C7.2427 3.13053 7.35728 3.12793 7.47186 3.12793C7.53436 3.12793 7.59426 3.12793 7.65155 3.12793C7.70884 3.12793 7.76353 3.13314 7.81561 3.14355C7.81561 3.15397 7.81561 3.16439 7.81561 3.1748C7.81561 3.18522 7.81561 3.20085 7.81561 3.22168C7.81561 3.38835 7.77395 3.53418 7.69061 3.65918C7.60728 3.78418 7.51353 3.89876 7.40936 4.00293C7.53436 4.32585 7.73749 4.3597 8.01874 4.10449C8.29999 3.84928 8.54478 3.69043 8.75311 3.62793C8.77395 3.55501 8.78176 3.4873 8.77655 3.4248C8.77134 3.3623 8.75832 3.31022 8.73749 3.26855C8.92499 3.31022 9.10728 3.3571 9.28436 3.40918C9.46145 3.46126 9.63332 3.52376 9.79999 3.59668C9.83124 3.61751 9.86509 3.63314 9.90155 3.64355C9.93801 3.65397 9.96665 3.6696 9.98749 3.69043C9.98749 3.69043 9.98488 3.69303 9.97968 3.69824C9.97447 3.70345 9.96665 3.71126 9.95624 3.72168C9.94582 3.7321 9.9354 3.74512 9.92499 3.76074C9.91457 3.77637 9.90415 3.78939 9.89374 3.7998C10.0292 3.93522 10.1646 4.07845 10.3 4.22949C10.4354 4.38053 10.5031 4.51855 10.5031 4.64355C10.5239 4.64355 10.5422 4.64616 10.5578 4.65137C10.5734 4.65658 10.5969 4.65918 10.6281 4.65918C10.6073 4.65918 10.6151 4.65397 10.6516 4.64355C10.688 4.63314 10.7062 4.62793 10.7062 4.62793C10.7271 4.62793 10.7479 4.62533 10.7687 4.62012C10.7896 4.61491 10.8104 4.6071 10.8312 4.59668C10.8937 4.57585 10.951 4.5472 11.0031 4.51074C11.0552 4.47428 11.0917 4.43522 11.1125 4.39355C11.1125 4.39355 11.1151 4.39095 11.1203 4.38574C11.1255 4.38053 11.1281 4.37272 11.1281 4.3623C11.2323 4.44564 11.3338 4.52897 11.4328 4.6123C11.5318 4.69564 11.6229 4.78418 11.7062 4.87793C11.9354 5.1071 12.1411 5.34408 12.3234 5.58887C12.5057 5.83366 12.6646 6.09668 12.8 6.37793C12.6958 6.4821 12.576 6.55501 12.4406 6.59668C12.3052 6.63835 12.1646 6.63314 12.0187 6.58105C11.8729 6.51855 11.7453 6.43522 11.6359 6.33105C11.5266 6.22689 11.4146 6.11751 11.3 6.00293C11.2896 5.99251 11.2792 5.9847 11.2687 5.97949C11.2583 5.97428 11.2479 5.96647 11.2375 5.95605C11.2375 5.95605 11.2375 5.95085 11.2375 5.94043C11.2271 5.94043 11.2036 5.93522 11.1672 5.9248C11.1307 5.91439 11.1125 5.90918 11.1125 5.90918C11.05 5.89876 10.9901 5.89876 10.9328 5.90918C10.8755 5.9196 10.8156 5.94043 10.7531 5.97168C10.7323 5.97168 10.7167 5.97428 10.7062 5.97949C10.6958 5.9847 10.6802 5.99251 10.6594 6.00293C10.6594 6.00293 10.6568 6.00553 10.6516 6.01074C10.6463 6.01595 10.6385 6.01855 10.6281 6.01855C10.6177 6.01855 10.6099 6.02116 10.6047 6.02637C10.5995 6.03158 10.5917 6.03939 10.5812 6.0498C10.5708 6.0498 10.563 6.05241 10.5578 6.05762C10.5526 6.06283 10.5448 6.06543 10.5344 6.06543C10.5344 6.07585 10.5292 6.08105 10.5187 6.08105C10.5083 6.08105 10.5031 6.08626 10.5031 6.09668C10.4927 6.09668 10.4823 6.09928 10.4719 6.10449C10.4614 6.1097 10.4562 6.11751 10.4562 6.12793C10.4458 6.12793 10.438 6.13053 10.4328 6.13574C10.4276 6.14095 10.425 6.14355 10.425 6.14355C10.4146 6.15397 10.4042 6.16178 10.3937 6.16699C10.3833 6.1722 10.3729 6.1748 10.3625 6.1748C10.3625 6.1748 10.3599 6.17741 10.3547 6.18262C10.3495 6.18783 10.3469 6.19043 10.3469 6.19043C10.3364 6.20085 10.326 6.20866 10.3156 6.21387C10.3052 6.21908 10.2948 6.22689 10.2844 6.2373C10.2844 6.2373 10.2818 6.23991 10.2766 6.24512C10.2713 6.25033 10.2687 6.25293 10.2687 6.25293C10.2583 6.26335 10.2479 6.27116 10.2375 6.27637C10.2271 6.28158 10.2167 6.28939 10.2062 6.2998C10.1854 6.32064 10.1646 6.33887 10.1437 6.35449C10.1229 6.37012 10.1021 6.38835 10.0812 6.40918C10.0812 6.4196 10.0838 6.42741 10.0891 6.43262C10.0943 6.43783 10.0969 6.44564 10.0969 6.45605C10.076 6.51855 10.0552 6.57585 10.0344 6.62793C10.0135 6.68001 9.9927 6.72689 9.97186 6.76855C9.87811 6.8623 9.81301 6.96908 9.77655 7.08887C9.74009 7.20866 9.72186 7.33626 9.72186 7.47168C9.6802 7.71126 9.66718 7.95605 9.6828 8.20605C9.69843 8.45605 9.73749 8.68001 9.79999 8.87793C9.79999 8.87793 9.8052 8.87793 9.81561 8.87793C9.8677 9.14876 9.9953 9.34147 10.1984 9.45605C10.4016 9.57064 10.6333 9.63314 10.8937 9.64355C11.0187 9.69564 11.1724 9.70605 11.3547 9.6748C11.537 9.64355 11.8 9.55501 12.1437 9.40918C12.1229 9.63835 12.162 9.72168 12.2609 9.65918C12.3599 9.59668 12.4406 9.59668 12.5031 9.65918C12.4823 9.70085 12.4771 9.76335 12.4875 9.84668C12.4979 9.93001 12.5187 10.0186 12.55 10.1123C12.5396 10.1436 12.5318 10.18 12.5266 10.2217C12.5213 10.2633 12.5187 10.3102 12.5187 10.3623C12.6333 10.6956 12.675 11.0394 12.6437 11.3936C12.6125 11.7477 12.5552 12.1019 12.4719 12.4561C12.3573 12.6227 12.2375 12.7816 12.1125 12.9326C11.9875 13.0837 11.8573 13.2269 11.7219 13.3623C11.4406 13.6436 11.1411 13.891 10.8234 14.1045C10.5057 14.318 10.1698 14.5029 9.81561 14.6592C9.44061 14.8154 9.0578 14.9326 8.66718 15.0107C8.27655 15.0889 7.87811 15.1279 7.47186 15.1279C7.19061 15.1279 6.91197 15.1097 6.63593 15.0732C6.35988 15.0368 6.08645 14.9821 5.81561 14.9092C5.78436 14.8675 5.75832 14.8258 5.73749 14.7842C5.71665 14.7425 5.71145 14.7008 5.72186 14.6592Z" fill="white"/>
</g>
<defs>
<clipPath id="clip0_1_317">
<rect width="16" height="16" fill="white" transform="matrix(1 0 0 -1 0.799988 16.7998)"/>
</clipPath>
</defs>
</svg>
