<svg width="25" height="26" viewBox="0 0 25 26" fill="none" xmlns="http://www.w3.org/2000/svg">
<g clip-path="url(#clip0_1_42)">
<path d="M16.6678 6.50781H3.66C2.83188 6.50781 2.12485 6.80078 1.53891 7.38672C0.952972 7.97266 0.660004 8.67969 0.660004 9.50781V18.5078C0.660004 19.3359 0.952972 20.043 1.53891 20.6289C2.12485 21.2148 2.83188 21.5078 3.66 21.5078H16.6678C17.4959 21.5078 18.203 21.2148 18.7889 20.6289C19.3748 20.043 19.6678 19.3359 19.6678 18.5078V9.50781C19.6678 8.67969 19.3748 7.97266 18.7889 7.38672C18.203 6.80078 17.4959 6.50781 16.6678 6.50781ZM18.66 18.5078C18.66 19.0547 18.4647 19.5234 18.0741 19.9141C17.6834 20.3047 17.2147 20.5 16.6678 20.5H3.66C3.11313 20.5 2.64438 20.3047 2.25375 19.9141C1.86313 19.5234 1.66782 19.0547 1.66782 18.5078V13.4922H18.66V18.5078ZM1.66782 9.50781C1.66782 8.94531 1.86313 8.46875 2.25375 8.07812C2.64438 7.6875 3.11313 7.49219 3.66 7.49219H16.6678C17.2147 7.49219 17.6834 7.6875 18.0741 8.07812C18.4647 8.46875 18.66 8.94531 18.66 9.50781H1.66782Z" fill="#231D19"/>
</g>
<defs>
<clipPath id="clip0_1_42">
<rect width="24" height="25" fill="white" transform="matrix(1 0 0 -1 0.660004 25.5)"/>
</clipPath>
</defs>
</svg>
