<svg width="25" height="26" viewBox="0 0 25 26" fill="none" xmlns="http://www.w3.org/2000/svg">
<g clip-path="url(#clip0_1_47)">
<path d="M9.31 3.50781H3.31C2.48187 3.50781 1.77484 3.80078 1.1889 4.38672C0.602966 4.97266 0.309998 5.67969 0.309998 6.50781V20.5C0.309998 21.3281 0.602966 22.0352 1.1889 22.6211C1.77484 23.207 2.48187 23.5 3.31 23.5H9.31C10.1381 23.5 10.8452 23.207 11.4311 22.6211C12.017 22.0352 12.31 21.3281 12.31 20.5V6.50781C12.31 5.67969 12.017 4.97266 11.4311 4.38672C10.8452 3.80078 10.1381 3.50781 9.31 3.50781ZM11.3022 20.5C11.3022 21.0469 11.1069 21.5156 10.7162 21.9062C10.3256 22.2969 9.85687 22.4922 9.31 22.4922H3.31C2.76312 22.4922 2.29437 22.2969 1.90375 21.9062C1.51312 21.5156 1.31781 21.0469 1.31781 20.5V18.5078H11.3022V20.5ZM11.3022 17.5H1.31781V7.49219H11.3022V17.5ZM1.31781 6.50781C1.31781 5.94531 1.51312 5.46875 1.90375 5.07812C2.29437 4.6875 2.76312 4.49219 3.31 4.49219H9.31C9.85687 4.49219 10.3256 4.6875 10.7162 5.07812C11.1069 5.46875 11.3022 5.94531 11.3022 6.50781H1.31781ZM5.30219 20.5C5.30219 20.2188 5.39984 19.9805 5.59515 19.7852C5.79047 19.5898 6.02875 19.4922 6.31 19.4922C6.59125 19.4922 6.82953 19.5898 7.02484 19.7852C7.22015 19.9805 7.31781 20.2188 7.31781 20.5C7.31781 20.7812 7.22015 21.0195 7.02484 21.2148C6.82953 21.4102 6.59125 21.5078 6.31 21.5078C6.02875 21.5078 5.79047 21.4102 5.59515 21.2148C5.39984 21.0195 5.30219 20.7812 5.30219 20.5ZM3.80219 10.4922H2.81781C2.67719 10.4922 2.55609 10.4453 2.45453 10.3516C2.35297 10.2578 2.30219 10.1406 2.30219 10V8.99219C2.30219 8.86719 2.35297 8.75391 2.45453 8.65234C2.55609 8.55078 2.67719 8.5 2.81781 8.5H3.80219C3.94281 8.5 4.0639 8.55078 4.16547 8.65234C4.26703 8.75391 4.31781 8.86719 4.31781 8.99219V10C4.31781 10.1406 4.26703 10.2578 4.16547 10.3516C4.0639 10.4453 3.94281 10.4922 3.80219 10.4922ZM6.80219 10.4922H5.81781C5.67719 10.4922 5.55609 10.4453 5.45453 10.3516C5.35297 10.2578 5.30219 10.1406 5.30219 10V8.99219C5.30219 8.86719 5.35297 8.75391 5.45453 8.65234C5.55609 8.55078 5.67719 8.5 5.81781 8.5H6.80219C6.94281 8.5 7.0639 8.55078 7.16547 8.65234C7.26703 8.75391 7.31781 8.86719 7.31781 8.99219V10C7.31781 10.1406 7.26703 10.2578 7.16547 10.3516C7.0639 10.4453 6.94281 10.4922 6.80219 10.4922ZM9.80219 10.4922H8.81781C8.67719 10.4922 8.55609 10.4453 8.45453 10.3516C8.35297 10.2578 8.30219 10.1406 8.30219 10V8.99219C8.30219 8.86719 8.35297 8.75391 8.45453 8.65234C8.55609 8.55078 8.67719 8.5 8.81781 8.5H9.80219C9.94281 8.5 10.0639 8.55078 10.1655 8.65234C10.267 8.75391 10.3178 8.86719 10.3178 8.99219V10C10.3178 10.1406 10.267 10.2578 10.1655 10.3516C10.0639 10.4453 9.94281 10.4922 9.80219 10.4922ZM3.80219 13.4922H2.81781C2.67719 13.4922 2.55609 13.4453 2.45453 13.3516C2.35297 13.2578 2.30219 13.1406 2.30219 13V11.9922C2.30219 11.8672 2.35297 11.7539 2.45453 11.6523C2.55609 11.5508 2.67719 11.5 2.81781 11.5H3.80219C3.94281 11.5 4.0639 11.5508 4.16547 11.6523C4.26703 11.7539 4.31781 11.8672 4.31781 11.9922V13C4.31781 13.1406 4.26703 13.2578 4.16547 13.3516C4.0639 13.4453 3.94281 13.4922 3.80219 13.4922ZM6.80219 13.4922H5.81781C5.67719 13.4922 5.55609 13.4453 5.45453 13.3516C5.35297 13.2578 5.30219 13.1406 5.30219 13V11.9922C5.30219 11.8672 5.35297 11.7539 5.45453 11.6523C5.55609 11.5508 5.67719 11.5 5.81781 11.5H6.80219C6.94281 11.5 7.0639 11.5508 7.16547 11.6523C7.26703 11.7539 7.31781 11.8672 7.31781 11.9922V13C7.31781 13.1406 7.26703 13.2578 7.16547 13.3516C7.0639 13.4453 6.94281 13.4922 6.80219 13.4922Z" fill="#231D19"/>
</g>
<defs>
<clipPath id="clip0_1_47">
<rect width="24" height="25" fill="white" transform="matrix(1 0 0 -1 0.309998 25.5)"/>
</clipPath>
</defs>
</svg>
